<svg xmlns="http://www.w3.org/2000/svg" xmlns:xlink="http://www.w3.org/1999/xlink" width="100" zoomAndPan="magnify" viewBox="0 0 75 74.999997" height="100" preserveAspectRatio="xMidYMid meet" version="1.0"><defs><clipPath id="a818f147af"><path d="M 12.800781 3.300781 L 62 3.300781 L 62 71.398438 L 12.800781 71.398438 Z M 12.800781 3.300781 " clip-rule="nonzero"/></clipPath></defs><g clip-path="url(#a818f147af)"><path fill="#000000" d="M 31.546875 18.761719 C 30.402344 18.769531 29.101562 18.839844 28.355469 19.714844 C 27.65625 20.546875 27.753906 21.832031 28.300781 22.777344 C 28.835938 23.71875 29.738281 24.390625 30.605469 25.042969 C 32.144531 26.183594 33.671875 27.320312 35.207031 28.460938 C 35.425781 28.625 35.753906 28.789062 35.957031 28.597656 C 40.695312 24.070312 48.566406 23.269531 54.113281 26.753906 C 59.664062 30.238281 62.375 37.675781 60.363281 43.914062 C 59.945312 45.222656 60.546875 46.613281 60.992188 47.910156 C 62.609375 52.609375 62.089844 57.992188 59.628906 62.296875 C 57.15625 66.609375 52.78125 69.777344 47.921875 70.765625 C 45.027344 71.355469 42.039062 71.207031 39.085938 71.21875 C 34.257812 71.25 29.296875 71.703125 24.726562 70.160156 C 19.273438 68.316406 14.90625 63.539062 13.570312 57.941406 C 12.460938 53.304688 13.324219 48.433594 12.96875 43.679688 C 14.773438 45.65625 16.578125 47.632812 18.382812 49.609375 C 18.636719 49.890625 18.921875 50.238281 18.859375 50.621094 C 17.980469 55.9375 20.492188 61.894531 25.347656 64.238281 C 28.992188 66 33.253906 65.597656 37.304688 65.570312 C 41.261719 65.542969 45.371094 65.882812 49.011719 64.335938 C 52.371094 62.914062 55.003906 59.890625 55.953125 56.371094 C 56.910156 52.84375 56.152344 48.90625 53.964844 45.988281 C 52.253906 43.695312 49.796875 42.101562 47.367188 40.59375 C 46.722656 40.195312 45.855469 40.386719 45.257812 40.855469 C 44.65625 41.316406 44.28125 41.996094 43.914062 42.660156 C 47.433594 44.777344 51.238281 47.269531 52.308594 51.238281 C 53.265625 54.796875 51.402344 58.914062 48.089844 60.542969 C 45.882812 61.632812 43.320312 61.644531 40.855469 61.640625 C 38.109375 61.640625 35.355469 61.632812 32.609375 61.625 C 30.847656 61.617188 29.023438 61.605469 27.394531 60.925781 C 23.96875 59.492188 22.285156 55.324219 22.785156 51.648438 C 24.5 52.078125 26.246094 52.390625 28.003906 52.574219 C 28.164062 53.730469 28.441406 55.054688 29.46875 55.613281 C 30.011719 55.910156 30.664062 55.917969 31.285156 55.925781 C 35.265625 55.9375 39.234375 55.953125 43.214844 55.96875 C 44.339844 55.96875 45.605469 55.917969 46.378906 55.089844 C 47.164062 54.246094 47.09375 52.867188 46.527344 51.859375 C 45.960938 50.855469 45.003906 50.140625 44.078125 49.453125 C 42.886719 48.574219 41.699219 47.703125 40.515625 46.824219 C 39.929688 46.394531 39.085938 45.96875 38.550781 46.449219 C 33.664062 50.769531 25.828125 51.308594 20.414062 47.6875 C 14.992188 44.0625 12.488281 36.621094 14.605469 30.453125 C 14.945312 29.476562 14.476562 28.433594 14.101562 27.472656 C 12.375 23.042969 12.566406 17.910156 14.609375 13.625 C 16.65625 9.34375 20.527344 5.972656 25.058594 4.535156 C 27.925781 3.628906 30.984375 3.472656 33.996094 3.394531 C 36.714844 3.324219 39.433594 3.300781 42.152344 3.378906 C 44.707031 3.449219 47.289062 3.613281 49.738281 4.34375 C 53.335938 5.40625 56.570312 7.714844 58.664062 10.828125 C 62.550781 16.609375 62.191406 24.148438 61.671875 31.105469 C 60.519531 29.175781 59.019531 27.457031 57.261719 26.054688 C 55.757812 24.851562 56.074219 22.554688 56.054688 20.628906 C 55.996094 16.191406 53.09375 11.914062 48.988281 10.21875 C 46.214844 9.078125 43.121094 9.074219 40.121094 9.085938 C 38.34375 9.09375 36.566406 9.101562 34.789062 9.109375 C 32.074219 9.121094 29.289062 9.144531 26.722656 10.042969 C 22.8125 11.417969 19.726562 14.894531 18.824219 18.9375 C 17.917969 22.972656 19.234375 27.441406 22.175781 30.347656 C 23.707031 31.855469 25.589844 32.921875 27.449219 33.980469 C 28.773438 34.730469 30.351562 33.40625 30.96875 32.015625 C 27.386719 29.878906 23.492188 27.320312 22.503906 23.269531 C 21.738281 20.164062 23.082031 16.648438 25.722656 14.84375 C 28.371094 13.039062 31.789062 13.003906 34.988281 13.023438 C 37.480469 13.046875 39.972656 13.066406 42.464844 13.089844 C 44.550781 13.101562 46.753906 13.152344 48.550781 14.214844 C 51.417969 15.921875 52.335938 19.703125 52.140625 23.039062 C 50.355469 22.703125 48.570312 22.371094 46.789062 22.039062 C 46.703125 21.019531 46.5625 19.878906 45.761719 19.234375 C 45.097656 18.703125 44.167969 18.691406 43.320312 18.691406 C 39.398438 18.710938 35.46875 18.738281 31.546875 18.761719 M 30.148438 40.378906 C 29.214844 40.714844 28.171875 40.628906 27.222656 40.339844 C 25.347656 39.757812 23.640625 38.148438 23.585938 36.1875 C 23.578125 35.839844 23.613281 35.480469 23.457031 35.167969 C 23.339844 34.949219 23.140625 34.792969 22.941406 34.636719 C 22 33.914062 21.050781 33.1875 20.109375 32.457031 C 18.90625 35.996094 20.152344 40.230469 23.070312 42.570312 C 25.992188 44.898438 30.394531 45.175781 33.582031 43.21875 C 34.414062 42.71875 35.160156 42.074219 35.902344 41.441406 C 38.097656 39.558594 40.296875 37.675781 42.492188 35.785156 C 43.164062 35.210938 43.859375 34.625 44.691406 34.320312 C 45.890625 33.878906 47.242188 34.09375 48.394531 34.628906 C 50.070312 35.410156 51.488281 37.09375 51.304688 38.929688 C 51.246094 39.472656 51.722656 39.90625 52.152344 40.238281 C 52.933594 40.839844 53.71875 41.441406 54.496094 42.050781 C 54.601562 42.128906 54.742188 42.214844 54.851562 42.136719 C 54.914062 42.09375 54.933594 42.015625 54.957031 41.945312 C 55.796875 38.597656 54.730469 34.800781 52.175781 32.46875 C 49.621094 30.140625 45.667969 29.441406 42.511719 30.847656 C 41.003906 31.519531 39.722656 32.613281 38.464844 33.6875 C 36.390625 35.453125 34.316406 37.222656 32.25 38.984375 C 31.605469 39.539062 30.941406 40.097656 30.148438 40.378906 " fill-opacity="1" fill-rule="nonzero"/></g></svg>