<svg xmlns="http://www.w3.org/2000/svg" xmlns:xlink="http://www.w3.org/1999/xlink" width="500" zoomAndPan="magnify" viewBox="0 0 375 374.999991" height="500" preserveAspectRatio="xMidYMid meet" version="1.0"><defs><clipPath id="7e61aae2cd"><path d="M 9.5625 18 L 363 18 L 363 181 L 9.5625 181 Z M 9.5625 18 " clip-rule="nonzero"/></clipPath><clipPath id="924b5d4d6e"><path d="M 341 190 L 365.8125 190 L 365.8125 214 L 341 214 Z M 341 190 " clip-rule="nonzero"/></clipPath><clipPath id="e4b74f195f"><path d="M 253 227 L 361 227 L 361 365.394531 L 253 365.394531 Z M 253 227 " clip-rule="nonzero"/></clipPath></defs><g clip-path="url(#7e61aae2cd)"><path fill="#ffffff" d="M 347.804688 180.691406 C 340.167969 133.460938 312.417969 89.800781 272.859375 62.878906 C 233.300781 35.957031 182.5 26.132812 135.765625 36.386719 C 89.03125 46.605469 46.992188 76.769531 22.316406 117.75 C 17.652344 125.457031 13.617188 133.492188 9.585938 141.53125 C 27.015625 89.601562 69.25 46.605469 120.878906 28.25 C 172.476562 9.894531 232.375 16.574219 278.714844 45.8125 C 325.019531 75.082031 356.769531 126.28125 362.359375 180.789062 C 357.597656 179.601562 352.570312 179.566406 347.804688 180.691406 " fill-opacity="1" fill-rule="nonzero"/></g><g clip-path="url(#924b5d4d6e)"><path fill="#ffffff" d="M 356.140625 190.648438 C 361.433594 191.9375 365.402344 197.261719 365.136719 202.6875 C 364.871094 208.078125 360.375 213.003906 354.984375 213.734375 C 349.625 214.460938 343.96875 210.953125 342.25 205.792969 C 340.5625 200.636719 342.976562 194.449219 347.707031 191.804688 C 350.253906 190.414062 353.328125 189.984375 356.140625 190.648438 " fill-opacity="1" fill-rule="nonzero"/></g><path fill="#ffffff" d="M 204.757812 180.59375 C 205.253906 183.304688 205.453125 186.015625 205.386719 188.761719 C 204.726562 188.925781 204.128906 188.199219 203.996094 187.503906 C 203.863281 186.808594 204.03125 186.082031 203.863281 185.421875 C 203.367188 183.535156 200.886719 183.140625 198.9375 183.140625 C 197.347656 183.140625 195.792969 183.140625 194.207031 183.105469 C 193.777344 183.105469 193.3125 183.140625 193.015625 183.402344 C 192.652344 183.734375 192.621094 184.296875 192.621094 184.757812 C 192.6875 193.589844 192.71875 202.453125 192.785156 211.285156 C 192.785156 212.9375 193.148438 215.089844 194.769531 215.453125 C 195.296875 215.550781 195.859375 215.417969 196.390625 215.550781 C 196.917969 215.652344 197.449219 216.113281 197.316406 216.644531 C 192.851562 216.742188 188.386719 216.875 183.953125 216.972656 C 183.226562 217.007812 182.398438 216.972656 181.96875 216.378906 C 182.828125 215.453125 184.484375 215.949219 185.542969 215.253906 C 186.566406 214.59375 186.667969 213.171875 186.632812 211.945312 C 186.535156 203.015625 186.433594 194.085938 186.300781 185.1875 C 186.300781 184.628906 186.234375 183.964844 185.773438 183.636719 C 185.507812 183.4375 185.113281 183.4375 184.78125 183.4375 C 183.195312 183.4375 181.605469 183.4375 179.984375 183.402344 C 178.230469 183.402344 176.050781 183.636719 175.289062 185.222656 C 174.628906 186.644531 175.222656 188.925781 173.734375 189.523438 C 173.503906 186.675781 173.601562 183.800781 174.03125 180.988281 C 184.25 181.585938 194.539062 181.453125 204.757812 180.59375 " fill-opacity="1" fill-rule="nonzero"/><path fill="#ffffff" d="M 170.195312 134.15625 C 170.195312 144.539062 170.160156 154.960938 170.160156 165.34375 C 170.160156 165.808594 170.195312 166.304688 170.460938 166.632812 C 170.789062 167.03125 171.386719 167.128906 171.882812 167.164062 C 174.628906 167.394531 177.4375 167.660156 180.152344 167.164062 C 182.863281 166.632812 185.574219 165.3125 187.0625 162.964844 C 188.417969 160.914062 188.847656 158.132812 190.898438 156.8125 C 190.105469 160.613281 189.179688 164.417969 188.121094 168.1875 C 187.988281 168.75 187.789062 169.3125 187.328125 169.609375 C 186.964844 169.84375 186.5 169.875 186.070312 169.875 C 176.050781 169.941406 166.0625 170.007812 156.039062 170.042969 C 155.742188 169.710938 156.070312 169.148438 156.503906 169.015625 C 156.933594 168.917969 157.394531 169.050781 157.859375 169.050781 C 159.148438 169.082031 160.273438 168.054688 160.769531 166.867188 C 161.265625 165.675781 161.265625 164.351562 161.265625 163.0625 C 161.265625 153.503906 161.265625 143.976562 161.265625 134.453125 C 161.265625 133.328125 161.265625 132.171875 160.800781 131.144531 C 160.042969 129.390625 157.925781 128.367188 156.070312 128.828125 C 155.476562 128.53125 156.371094 127.804688 157 127.804688 C 163.183594 127.804688 169.367188 127.804688 175.519531 127.804688 C 175.421875 129.09375 173.503906 128.863281 172.277344 129.292969 C 170.492188 129.886719 170.195312 132.238281 170.195312 134.15625 " fill-opacity="1" fill-rule="nonzero"/><path fill="#ffffff" d="M 121.804688 197.460938 C 122.335938 196.234375 121.90625 194.085938 123.261719 194.019531 C 123.328125 198.023438 123.394531 202.023438 123.394531 206.058594 C 122.566406 205.960938 122.46875 204.835938 122.269531 204.007812 C 121.90625 202.386719 120.316406 201.261719 118.699219 200.898438 C 117.042969 200.570312 115.355469 200.832031 113.703125 201.097656 C 113.109375 201.199219 112.480469 201.328125 112.117188 201.824219 C 111.851562 202.222656 111.851562 202.71875 111.851562 203.214844 C 111.917969 206.820312 111.949219 210.425781 112.015625 214.03125 C 112.015625 214.359375 112.015625 214.691406 112.183594 214.957031 C 112.480469 215.386719 113.074219 215.484375 113.605469 215.519531 C 115.953125 215.652344 118.300781 215.785156 120.550781 215.289062 C 122.832031 214.792969 125.046875 213.566406 126.207031 211.550781 C 127.132812 209.929688 127.429688 207.746094 129.082031 206.820312 C 128.554688 209.996094 127.726562 213.070312 126.570312 216.082031 C 126.4375 216.445312 126.273438 216.808594 125.972656 217.074219 C 125.542969 217.402344 124.980469 217.4375 124.453125 217.4375 C 116.648438 217.570312 108.875 217.703125 101.101562 217.835938 C 101.433594 216.476562 103.449219 216.875 104.609375 216.148438 C 105.667969 215.453125 105.765625 213.964844 105.730469 212.707031 C 105.601562 204.207031 105.433594 195.707031 105.300781 187.171875 C 105.269531 185.816406 105.070312 184.164062 103.8125 183.636719 C 103.1875 183.371094 102.457031 183.503906 101.796875 183.335938 C 101.101562 183.171875 100.441406 182.476562 100.769531 181.882812 C 108.90625 182.476562 117.078125 182.34375 125.179688 181.453125 C 125.675781 184.195312 125.839844 187.007812 125.675781 189.785156 C 125.082031 189.917969 124.519531 189.289062 124.386719 188.664062 C 124.289062 188.035156 124.417969 187.40625 124.289062 186.777344 C 123.890625 184.628906 121.144531 184.03125 118.996094 184 C 116.546875 184 114.066406 184.164062 111.652344 184.527344 C 111.652344 188.925781 111.652344 193.324219 111.652344 197.757812 C 111.652344 198.121094 111.652344 198.519531 111.917969 198.78125 C 112.183594 199.015625 112.578125 199.046875 112.941406 199.046875 C 114.664062 199.015625 116.347656 199.015625 118.070312 199.015625 C 119.492188 198.980469 121.246094 198.78125 121.804688 197.460938 " fill-opacity="1" fill-rule="nonzero"/><path fill="#ffffff" d="M 227.613281 196.996094 C 228.871094 195.972656 228.96875 194.152344 228.96875 192.53125 C 229.894531 192.929688 230.058594 194.152344 230.058594 195.179688 C 230.09375 198.320312 230.09375 201.460938 230.09375 204.605469 C 228.769531 204.503906 229 202.453125 228.375 201.261719 C 227.746094 200.074219 226.15625 199.839844 224.800781 199.808594 C 222.683594 199.773438 220.601562 199.90625 218.515625 200.207031 C 218.285156 204.800781 218.386719 209.464844 218.816406 214.0625 C 221.558594 214.359375 224.40625 214.691406 227.117188 214.0625 C 229.828125 213.433594 232.441406 211.75 233.367188 209.136719 C 233.863281 207.78125 234.292969 205.925781 235.714844 205.894531 C 235.21875 208.804688 234.425781 211.648438 233.402344 214.425781 C 233.234375 214.855469 233.070312 215.320312 232.707031 215.617188 C 232.210938 216.046875 231.515625 216.082031 230.855469 216.113281 C 223.910156 216.28125 216.960938 216.476562 210.015625 216.644531 C 209.257812 216.675781 208.429688 216.675781 207.835938 216.214844 C 208.332031 215.121094 210.015625 215.652344 211.074219 215.089844 C 212.066406 214.527344 212.199219 213.171875 212.199219 212.011719 C 212.199219 203.578125 212.199219 195.144531 212.199219 186.710938 C 212.199219 184.859375 211.738281 182.445312 209.882812 182.210938 C 209.386719 182.144531 208.890625 182.277344 208.394531 182.179688 C 207.898438 182.082031 207.4375 181.617188 207.570312 181.152344 C 215.707031 180.921875 223.808594 180.722656 231.914062 180.492188 C 232.109375 183.105469 232.277344 185.71875 232.476562 188.363281 C 231.613281 188.695312 231.21875 187.371094 231.019531 186.480469 C 230.589844 184.496094 228.703125 183.140625 226.71875 182.675781 C 224.769531 182.246094 222.71875 182.542969 220.734375 182.839844 C 219.875 182.972656 218.914062 183.171875 218.449219 183.898438 C 218.121094 184.429688 218.152344 185.089844 218.152344 185.683594 C 218.285156 189.6875 218.417969 193.65625 218.550781 197.660156 C 220.566406 197.890625 222.617188 197.957031 224.636719 197.855469 C 225.660156 197.789062 226.785156 197.660156 227.613281 196.996094 " fill-opacity="1" fill-rule="nonzero"/><path fill="#ffffff" d="M 95.214844 187.109375 C 95.613281 189.390625 96.007812 191.835938 95.117188 193.988281 C 94.355469 189.355469 90.714844 185.320312 86.183594 184.097656 C 81.652344 182.839844 76.460938 184.496094 73.453125 188.101562 C 70.90625 191.175781 69.976562 195.277344 69.847656 199.246094 C 69.679688 203.3125 70.308594 207.546875 72.558594 210.921875 C 74.90625 214.460938 79.039062 216.808594 83.273438 216.84375 C 87.542969 216.875 91.773438 214.527344 93.890625 210.820312 C 95.414062 208.144531 95.808594 204.96875 96.171875 201.925781 C 98.421875 206.488281 97.035156 212.542969 93.066406 215.71875 C 89.988281 218.164062 85.886719 218.828125 81.984375 218.660156 C 76.824219 218.429688 71.566406 216.710938 67.828125 213.105469 C 63.429688 208.773438 61.675781 201.992188 63.230469 196.003906 C 64.820312 190.050781 69.515625 185.058594 75.304688 182.875 C 81.089844 180.691406 87.773438 181.320312 93.195312 184.261719 C 93.757812 184.5625 94.320312 184.890625 94.683594 185.421875 C 95.015625 185.917969 95.117188 186.511719 95.214844 187.109375 " fill-opacity="1" fill-rule="nonzero"/><path fill="#ffffff" d="M 329.183594 180.261719 C 330.078125 180.492188 331.039062 180.789062 331.730469 181.453125 C 332.558594 182.277344 332.789062 183.503906 332.988281 184.660156 C 333.351562 186.777344 333.683594 189.058594 332.921875 191.078125 C 332.097656 186.613281 328.65625 182.742188 324.289062 181.417969 C 319.957031 180.097656 314.929688 181.417969 311.789062 184.691406 C 309.835938 186.742188 308.613281 189.390625 307.917969 192.136719 C 306.296875 198.417969 307.488281 205.695312 312.152344 210.226562 C 316.816406 214.726562 325.214844 215.289062 329.617188 210.523438 C 332.359375 207.546875 333.15625 203.28125 333.816406 199.277344 C 334.609375 199.542969 334.773438 200.570312 334.808594 201.394531 C 334.941406 204.175781 335.039062 207.085938 333.652344 209.5 C 332.890625 210.820312 331.699219 211.878906 330.441406 212.742188 C 324.289062 217.039062 315.527344 217.171875 309.207031 213.105469 C 302.890625 209.003906 299.449219 200.964844 300.808594 193.589844 C 301.371094 190.679688 302.59375 187.902344 304.511719 185.621094 C 307.355469 182.210938 311.589844 180.160156 315.988281 179.402344 C 320.355469 178.671875 324.886719 179.167969 329.183594 180.261719 " fill-opacity="1" fill-rule="nonzero"/><path fill="#ffffff" d="M 63.695312 160.914062 C 63.230469 158.199219 60.71875 156.414062 58.402344 154.925781 C 55.855469 153.304688 53.34375 151.683594 50.796875 150.0625 C 48.578125 148.675781 46.328125 147.21875 44.742188 145.101562 C 42.757812 142.457031 42.03125 138.917969 42.855469 135.710938 C 43.683594 132.535156 46.03125 129.757812 49.042969 128.398438 C 51.523438 127.277344 54.335938 127.109375 57.046875 127.144531 C 60.453125 127.175781 63.859375 127.472656 67.234375 128.035156 C 67.199219 129.988281 67.132812 131.9375 67.066406 133.890625 C 67.066406 135.113281 67 136.402344 66.242188 137.332031 C 65.910156 134.253906 63.828125 131.410156 60.949219 130.1875 C 58.105469 128.929688 54.597656 129.359375 52.117188 131.210938 C 50.960938 132.070312 49.96875 133.296875 49.769531 134.71875 C 49.339844 137.761719 52.285156 140.109375 54.863281 141.761719 C 57.542969 143.449219 60.1875 145.101562 62.835938 146.789062 C 65.347656 148.378906 67.960938 150.03125 69.480469 152.578125 C 72.589844 157.671875 70.042969 164.847656 65.082031 168.15625 C 60.121094 171.496094 53.605469 171.59375 47.851562 170.074219 C 45.238281 169.378906 42.359375 168.023438 41.667969 165.410156 C 41.367188 164.21875 41.566406 162.964844 41.765625 161.738281 C 42.164062 159.589844 42.691406 157.207031 44.542969 156.117188 C 43.652344 159.292969 44.777344 162.898438 47.125 165.210938 C 49.503906 167.558594 52.945312 168.617188 56.253906 168.320312 C 60.1875 167.957031 64.355469 164.78125 63.695312 160.914062 " fill-opacity="1" fill-rule="nonzero"/><path fill="#ffffff" d="M 253.476562 197.957031 C 257.777344 197.0625 260.71875 192.070312 259.429688 187.902344 C 258.109375 183.699219 252.847656 181.253906 248.8125 182.972656 C 248.945312 192.234375 249.046875 201.496094 249.175781 210.757812 C 249.175781 212.410156 249.542969 214.527344 251.160156 214.890625 C 252.21875 215.121094 253.90625 214.890625 253.839844 215.949219 C 248.78125 216.113281 243.71875 216.28125 238.660156 216.445312 C 238.363281 215.980469 238.824219 215.320312 239.355469 215.15625 C 239.882812 214.988281 240.480469 215.089844 241.007812 214.957031 C 242.761719 214.527344 243.089844 212.246094 243.058594 210.457031 C 242.894531 202.089844 242.726562 193.691406 242.5625 185.289062 C 242.5625 183.832031 242.132812 181.882812 240.675781 181.78125 C 240.148438 181.75 239.652344 181.949219 239.15625 181.914062 C 238.660156 181.882812 238.097656 181.351562 238.363281 180.921875 C 238.527344 180.59375 238.957031 180.558594 239.320312 180.558594 C 244.019531 180.527344 248.714844 180.527344 253.445312 180.492188 C 255.628906 180.492188 257.875 180.492188 259.960938 181.21875 C 263.996094 182.640625 266.738281 187.074219 266.242188 191.308594 C 265.746094 195.542969 262.078125 199.214844 257.808594 199.675781 C 263.203125 201.957031 264.988281 208.707031 269.417969 212.476562 C 271.171875 213.996094 273.355469 214.988281 275.671875 215.351562 C 269.519531 217.371094 262.175781 214.855469 258.539062 209.5 C 255.890625 205.628906 254.765625 200.207031 250.5 198.285156 C 251.460938 198.15625 252.484375 198.15625 253.476562 197.957031 " fill-opacity="1" fill-rule="nonzero"/><path fill="#ffffff" d="M 169.402344 182.542969 C 167.847656 182.839844 167.449219 184.890625 167.449219 186.511719 C 167.449219 190.945312 167.449219 195.375 167.449219 199.839844 C 167.449219 206.058594 167.449219 212.34375 168.507812 218.496094 C 159.414062 209.632812 150.316406 200.800781 141.222656 191.96875 C 141.320312 198.519531 141.421875 205.066406 141.519531 211.582031 C 141.519531 213.566406 142.148438 216.214844 144.132812 216.28125 C 144.628906 216.3125 145.15625 216.148438 145.652344 216.214844 C 146.148438 216.3125 146.613281 216.90625 146.347656 217.339844 C 141.386719 217.371094 136.457031 217.4375 131.53125 217.46875 C 131.429688 216.808594 132.226562 216.347656 132.886719 216.28125 C 133.582031 216.214844 134.308594 216.3125 134.871094 215.914062 C 135.53125 215.484375 135.632812 214.558594 135.664062 213.765625 C 136.09375 202.71875 135.894531 191.640625 135.070312 180.59375 C 144.03125 189.324219 152.996094 198.089844 161.960938 206.820312 C 161.992188 200.074219 161.925781 193.324219 161.761719 186.578125 C 161.726562 185.15625 161.464844 183.335938 160.074219 182.90625 C 159.445312 182.707031 158.75 182.839844 158.121094 182.742188 C 157.460938 182.640625 156.765625 182.046875 157 181.417969 C 161.828125 181.386719 166.65625 181.351562 171.453125 181.320312 C 171.816406 181.714844 171.417969 182.34375 170.921875 182.476562 C 170.425781 182.609375 169.898438 182.476562 169.402344 182.542969 " fill-opacity="1" fill-rule="nonzero"/><path fill="#ffffff" d="M 220.535156 141.5625 C 220.601562 146.757812 220.632812 151.949219 220.667969 157.140625 C 219.773438 157.175781 219.640625 155.886719 219.542969 154.992188 C 219.3125 152.808594 217.292969 151.15625 215.144531 150.625 C 212.992188 150.128906 210.746094 150.527344 208.59375 150.890625 C 208.03125 150.988281 207.402344 151.15625 207.105469 151.617188 C 206.90625 151.949219 206.90625 152.347656 206.90625 152.742188 C 206.90625 157.074219 206.875 161.410156 206.875 165.742188 C 206.875 166.070312 206.875 166.402344 207.074219 166.632812 C 207.304688 167 207.800781 167.0625 208.230469 167.128906 C 211.109375 167.394531 214.050781 167.691406 216.898438 167.164062 C 219.742188 166.601562 222.550781 165.144531 224.007812 162.632812 C 225.199219 160.679688 225.5625 158.035156 227.511719 156.84375 C 226.71875 160.648438 225.828125 164.417969 224.835938 168.1875 C 224.703125 168.71875 224.570312 169.246094 224.140625 169.578125 C 223.742188 169.84375 223.214844 169.875 222.75 169.875 C 212.695312 169.941406 202.640625 169.976562 192.585938 170.042969 C 192.421875 168.984375 194.074219 169.015625 195.132812 168.851562 C 197.414062 168.519531 197.976562 165.511719 197.976562 163.226562 C 197.976562 153.734375 197.976562 144.242188 197.976562 134.71875 C 197.976562 132.46875 197.515625 129.558594 195.296875 129.0625 C 194.273438 128.828125 192.785156 128.960938 192.585938 127.9375 C 202.808594 127.835938 213.027344 127.738281 223.246094 127.605469 C 223.710938 131.144531 223.84375 134.683594 223.578125 138.222656 C 222.023438 137.59375 222.550781 135.3125 222.089844 133.691406 C 221.296875 131.011719 217.757812 130.515625 214.976562 130.515625 C 212.730469 130.515625 210.511719 130.550781 208.296875 130.550781 C 207.898438 130.550781 207.4375 130.582031 207.171875 130.847656 C 206.875 131.144531 206.875 131.574219 206.875 131.972656 C 206.875 137.164062 206.90625 142.359375 206.941406 147.550781 C 209.125 148.078125 211.375 148.609375 213.621094 148.34375 C 215.871094 148.113281 218.152344 146.921875 219.078125 144.839844 C 219.574219 143.746094 219.675781 142.421875 220.535156 141.5625 " fill-opacity="1" fill-rule="nonzero"/><g clip-path="url(#e4b74f195f)"><path fill="#ffffff" d="M 279.277344 348.578125 C 317.707031 320.894531 343.175781 276.410156 348.898438 229.410156 C 349.03125 228.582031 349.195312 227.589844 349.957031 227.226562 C 350.320312 227.0625 350.71875 227.0625 351.082031 227.0625 C 354.289062 227.0625 357.53125 227.0625 360.738281 227.09375 C 355.910156 257.125 343.375 285.933594 324.621094 309.949219 C 305.902344 333.925781 281.027344 353.109375 253.046875 365.117188 C 261.976562 359.855469 270.90625 354.632812 279.277344 348.578125 " fill-opacity="1" fill-rule="nonzero"/></g><path fill="#ffffff" d="M 102.425781 157.738281 C 108.578125 147.21875 114.730469 136.703125 120.878906 126.21875 C 122.335938 137.660156 123.824219 149.136719 125.28125 160.613281 C 125.609375 163.195312 126.039062 166.007812 127.890625 167.859375 C 129.546875 169.546875 132.257812 170.074219 134.441406 169.179688 C 136.625 168.289062 138.144531 165.972656 138.144531 163.625 C 138.113281 154 138.078125 144.375 138.078125 134.75 C 138.046875 132.269531 137.320312 128.996094 134.839844 128.929688 C 133.847656 128.894531 132.191406 128.53125 132.820312 127.773438 C 139.402344 127.804688 145.984375 127.804688 152.566406 127.835938 C 151.671875 128.632812 150.351562 128.796875 149.324219 129.425781 C 147.207031 130.75 146.976562 133.691406 146.945312 136.207031 C 146.910156 144.011719 146.878906 151.785156 146.8125 159.589844 C 146.8125 161.804688 146.8125 164.054688 147.636719 166.105469 C 148.433594 168.15625 150.25 169.941406 152.46875 170.042969 C 139.136719 170.042969 125.808594 170.007812 112.480469 170.007812 C 114.035156 169.511719 115.785156 168.816406 116.28125 167.261719 C 116.480469 166.601562 116.414062 165.90625 116.347656 165.179688 C 115.6875 158.496094 115.027344 151.816406 114.363281 145.101562 C 108.972656 153.601562 104.210938 162.433594 100.078125 171.59375 C 94.917969 162.765625 89.757812 153.933594 84.597656 145.070312 C 83.9375 151.054688 83.273438 157.042969 82.613281 163.027344 C 82.449219 164.484375 82.28125 166.039062 82.777344 167.429688 C 83.273438 168.816406 84.628906 170.007812 86.117188 169.808594 C 81.523438 170.207031 76.925781 170.273438 72.328125 170.042969 C 71.730469 169.246094 73.417969 169.015625 74.410156 169.113281 C 77.023438 169.347656 78.246094 165.941406 78.578125 163.328125 C 80.199219 150.988281 81.785156 138.6875 83.375 126.347656 C 89.722656 136.800781 96.074219 147.253906 102.425781 157.738281 " fill-opacity="1" fill-rule="nonzero"/></svg>