<svg xmlns="http://www.w3.org/2000/svg" xmlns:xlink="http://www.w3.org/1999/xlink" width="500" zoomAndPan="magnify" viewBox="0 0 375 374.999991" height="500" preserveAspectRatio="xMidYMid meet" version="1.0"><defs><clipPath id="087f337d92"><path d="M 64 16.507812 L 310 16.507812 L 310 357 L 64 357 Z M 64 16.507812 " clip-rule="nonzero"/></clipPath></defs><g clip-path="url(#087f337d92)"><path fill="#000000" d="M 157.742188 93.800781 C 152.011719 93.839844 145.5 94.191406 141.78125 98.582031 C 138.277344 102.726562 138.773438 109.167969 141.5 113.878906 C 144.1875 118.589844 148.683594 121.953125 153.035156 125.210938 C 160.714844 130.910156 168.359375 136.609375 176.039062 142.3125 C 177.136719 143.125 178.765625 143.941406 179.792969 142.984375 C 203.46875 120.359375 242.824219 116.355469 270.570312 133.777344 C 298.316406 151.199219 311.871094 188.375 301.820312 219.570312 C 299.730469 226.121094 302.738281 233.0625 304.96875 239.542969 C 313.039062 263.050781 310.453125 289.960938 298.136719 311.488281 C 285.785156 333.054688 263.914062 348.878906 239.601562 353.835938 C 225.128906 356.777344 210.191406 356.03125 195.433594 356.101562 C 171.296875 356.246094 146.488281 358.511719 123.628906 350.792969 C 96.375 341.585938 74.539062 317.6875 67.851562 289.714844 C 62.296875 266.523438 66.613281 242.160156 64.84375 218.402344 C 73.867188 228.28125 82.894531 238.160156 91.917969 248.039062 C 93.191406 249.457031 94.605469 251.191406 94.289062 253.101562 C 89.898438 279.695312 102.464844 309.472656 126.742188 321.191406 C 144.96875 330.007812 166.273438 327.988281 186.515625 327.847656 C 206.300781 327.707031 226.863281 329.40625 245.050781 321.6875 C 261.863281 314.570312 275.027344 299.449219 279.769531 281.851562 C 284.546875 264.21875 280.761719 244.535156 269.824219 229.945312 C 261.261719 218.472656 248.980469 210.507812 236.839844 202.964844 C 233.621094 200.980469 229.269531 201.9375 226.296875 204.273438 C 223.289062 206.578125 221.410156 209.976562 219.570312 213.304688 C 237.160156 223.890625 256.199219 236.355469 261.542969 256.183594 C 266.320312 273.992188 257.015625 294.566406 240.453125 302.707031 C 229.410156 308.160156 216.597656 308.230469 204.28125 308.195312 C 190.550781 308.195312 176.785156 308.160156 163.050781 308.125 C 154.238281 308.089844 145.109375 308.019531 136.96875 304.621094 C 119.839844 297.46875 111.417969 276.613281 113.929688 258.238281 C 122.496094 260.394531 131.238281 261.953125 140.011719 262.875 C 140.828125 268.644531 142.207031 275.265625 147.339844 278.066406 C 150.0625 279.550781 153.320312 279.585938 156.433594 279.621094 C 176.324219 279.695312 196.179688 279.765625 216.066406 279.835938 C 221.695312 279.835938 228.03125 279.585938 231.886719 275.445312 C 235.816406 271.230469 235.460938 264.328125 232.628906 259.296875 C 229.800781 254.269531 225.019531 250.695312 220.386719 247.261719 C 214.441406 242.871094 208.492188 238.515625 202.582031 234.125 C 199.644531 231.964844 195.433594 229.839844 192.746094 232.246094 C 168.324219 253.847656 129.148438 256.535156 102.074219 238.445312 C 74.964844 220.316406 62.4375 183.101562 73.019531 152.261719 C 74.71875 147.375 72.382812 142.167969 70.507812 137.355469 C 61.871094 115.222656 62.828125 89.554688 73.054688 68.132812 C 83.28125 46.710938 102.640625 29.855469 125.289062 22.667969 C 139.625 18.136719 154.914062 17.355469 169.988281 16.96875 C 183.578125 16.613281 197.167969 16.507812 210.757812 16.898438 C 223.535156 17.25 236.453125 18.066406 248.699219 21.710938 C 266.675781 27.023438 282.847656 38.566406 293.324219 54.144531 C 312.753906 83.039062 310.949219 120.746094 308.367188 155.519531 C 302.597656 145.886719 295.09375 137.285156 286.316406 130.273438 C 278.78125 124.253906 280.371094 112.78125 280.265625 103.148438 C 279.984375 80.949219 265.472656 59.5625 244.945312 51.101562 C 231.074219 45.398438 215.605469 45.363281 200.601562 45.433594 C 191.71875 45.472656 182.835938 45.507812 173.953125 45.542969 C 160.363281 45.613281 146.453125 45.71875 133.609375 50.214844 C 114.070312 57.085938 98.640625 74.46875 94.113281 94.6875 C 89.582031 114.871094 96.164062 137.210938 110.886719 151.730469 C 118.53125 159.273438 127.945312 164.617188 137.253906 169.894531 C 143.871094 173.648438 151.761719 167.027344 154.84375 160.085938 C 136.933594 149.394531 117.46875 136.609375 112.515625 116.355469 C 108.691406 100.8125 115.417969 83.25 128.617188 74.222656 C 141.855469 65.191406 158.945312 65.015625 174.945312 65.121094 C 187.402344 65.226562 199.859375 65.335938 212.316406 65.441406 C 222.757812 65.511719 233.761719 65.757812 242.75 71.070312 C 257.085938 79.605469 261.6875 98.511719 260.695312 115.1875 C 251.777344 113.523438 242.859375 111.859375 233.941406 110.195312 C 233.515625 105.097656 232.808594 99.398438 228.808594 96.175781 C 225.480469 93.519531 220.84375 93.449219 216.597656 93.449219 C 196.992188 93.554688 177.351562 93.695312 157.742188 93.800781 M 150.738281 201.902344 C 146.066406 203.566406 140.863281 203.140625 136.121094 201.691406 C 126.742188 198.785156 118.210938 190.75 117.929688 180.941406 C 117.894531 179.207031 118.070312 177.398438 117.292969 175.84375 C 116.691406 174.746094 115.699219 173.964844 114.710938 173.1875 C 110.003906 169.574219 105.257812 165.929688 100.554688 162.28125 C 94.535156 179.984375 100.765625 201.160156 115.347656 212.84375 C 129.960938 224.492188 151.976562 225.875 167.902344 216.101562 C 172.078125 213.585938 175.792969 210.363281 179.507812 207.214844 C 190.480469 197.796875 201.488281 188.375 212.457031 178.921875 C 215.820312 176.054688 219.289062 173.117188 223.464844 171.59375 C 229.445312 169.398438 236.203125 170.460938 241.972656 173.152344 C 250.359375 177.046875 257.4375 185.472656 256.519531 194.644531 C 256.234375 197.371094 258.605469 199.53125 260.765625 201.195312 C 264.660156 204.203125 268.585938 207.214844 272.480469 210.257812 C 273.011719 210.648438 273.71875 211.074219 274.25 210.683594 C 274.566406 210.472656 274.675781 210.082031 274.78125 209.726562 C 278.992188 192.980469 273.648438 174 260.871094 162.351562 C 248.097656 150.703125 228.347656 147.199219 212.5625 154.242188 C 205.027344 157.605469 198.621094 163.058594 192.320312 168.441406 C 181.949219 177.257812 171.582031 186.109375 161.246094 194.925781 C 158.027344 197.6875 154.699219 200.484375 150.738281 201.902344 " fill-opacity="1" fill-rule="nonzero"/></g></svg>